<svg width="28" height="28" viewBox="0 0 28 28" fill="none" xmlns="http://www.w3.org/2000/svg">
  <g clip-path="url(#clip0_122_297)">
    <g clip-path="url(#clip1_122_297)">
      <g clip-path="url(#clip2_122_297)">
        <path fill-rule="evenodd" clip-rule="evenodd"
          d="M27.484 13.3771L22.0656 3.98267C21.6758 3.28101 20.8962 2.81323 20.0777 2.81323H9.27985C8.46128 2.81323 7.68167 3.24203 7.29185 3.98267L1.91247 13.3771C1.52266 14.0787 1.52266 14.9363 1.91247 15.6769L7.33083 25.0714C7.72065 25.773 8.50026 26.2408 9.31884 26.2408H20.1166C20.9352 26.2408 21.7148 25.812 22.1046 25.0714L27.484 15.6769C27.8738 14.9363 27.8738 14.0787 27.484 13.3771ZM24.4435 15.4041L20.3115 22.5766C19.9997 23.1224 19.415 23.4732 18.7913 23.4732H10.5662C9.94254 23.4732 9.35782 23.1224 9.046 22.5766L4.95299 15.4041C4.64114 14.8583 4.64114 14.1957 4.95299 13.6499L9.046 6.47745C9.35782 5.93172 9.94254 5.58088 10.5662 5.58088H18.7913C19.415 5.58088 19.9997 5.93172 20.3115 6.47745L24.4435 13.6499C24.7553 14.1957 24.7553 14.8583 24.4435 15.4041Z"
          fill="#0DA6A6" />
        <path
          d="M15.4464 11.0997L18.2113 13.7954L12.2074 19.6492L9.74234 19.9145C9.41235 19.9501 9.13353 19.678 9.17025 19.3563L9.4445 16.9511L15.4464 11.0997ZM19.9213 10.6984L18.6231 9.43258C18.2182 9.03777 17.5615 9.03777 17.1565 9.43258L15.9351 10.6234L18.7 13.3191L19.9213 12.1284C20.3263 11.7333 20.3263 11.0932 19.9213 10.6984Z"
          fill="#FF0031" />
        <path fill-rule="evenodd" clip-rule="evenodd"
          d="M10.1299 19.0682C10.1299 18.5992 10.9789 18.219 11.4479 18.219H18.9117C19.3808 18.219 19.761 18.5992 19.761 19.0682C19.761 19.5373 19.3808 19.9175 18.9117 19.9175H9.67586C9.20687 19.9175 10.1299 19.5373 10.1299 19.0682Z"
          fill="#FF0031" />
      </g>
    </g>
  </g>
  <defs>
    <clipPath id="clip0_122_297">
      <rect width="27" height="27" fill="white" transform="translate(0.832031 0.663818)" />
    </clipPath>
    <clipPath id="clip1_122_297">
      <rect width="27" height="27" fill="white" transform="translate(0.832031 0.663818)" />
    </clipPath>
    <clipPath id="clip2_122_297">
      <rect width="27" height="27" fill="white" transform="translate(0.832031 0.663818)" />
    </clipPath>
  </defs>
</svg>
